<svg version="1" xmlns="http://www.w3.org/2000/svg" width="1600" height="1600" viewBox="0 0 1200.000000 1200.000000"><path d="M572.8.4c-.1.2-5.7.7-12.3 1-6.6.4-12.9.9-14 1.1-1.1.2-4.9.7-8.5 1-3.6.3-9.6 1-13.5 1.6-3.8.5-8.8 1.2-11 1.5-2.2.2-6.5.9-9.5 1.4-3 .6-6.8 1.3-8.5 1.5-1.6.3-6.4 1.2-10.5 2-4.1.9-8.4 1.7-9.6 1.9-4.3.8-24.1 5.7-28.9 7.1-30.2 8.8-55.7 17.3-66.7 22.4-2.6 1.1-4.9 2.1-5.1 2.1-.3 0-2.2.8-4.3 1.7-2.2.9-4.1 1.7-4.4 1.8-8.1 2.5-48.7 23.3-70.5 36.2-26.6 15.8-68 45.7-84.1 60.8-.6.5-4 3.5-7.5 6.5-8.4 7.2-37.5 36.3-47.1 47-4.2 4.7-11.1 12.8-15.3 18-4.2 5.2-8.4 10.4-9.4 11.5-11.1 13.3-38.7 53.7-47 69-1.2 2.2-3.5 6.2-5.1 9-2.9 4.8-19.1 37.4-24.3 48.5-15.4 33.6-34.3 93.1-39.1 123.4-.4 2.1-.8 4.1-1 4.5-.2.3-.7 2.8-1 5.5-.4 2.7-1.3 8.3-2.1 12.5-.7 4.2-1.6 9.6-1.9 12.1-.3 2.5-1 8.3-1.6 13-2.7 21.8-3.5 38-3.5 69.5 0 25.8.7 43.9 2 54.6.2 1.5.7 5.8 1 9.5.3 3.8 1 9.4 1.5 12.4s1.1 7.3 1.4 9.5c2.8 24.5 14.2 72.1 24.7 103 4.6 13.4 13.4 36.7 15.9 42 .5 1.1 3.4 7.6 6.5 14.5 5.8 12.8 17.9 36.5 23.2 45.6l3 5-3.8 14c-2.1 7.6-4.1 14.9-4.3 16.2-.3 1.3-1 3.8-1.5 5.5-1.1 3.2-13.9 49.8-18.7 67.7-1.4 5.2-5 18.3-8 29-8.5 30.5-10.4 37.4-10.9 39.5-.2 1.1-2.4 9.2-4.9 18-6.8 24.6-12.5 45.2-14.7 53.5-1.1 4.1-2.9 10.4-3.9 14-1 3.6-2.9 10.1-4 14.5-1.2 4.4-3.2 11.8-4.5 16.5-1.3 4.7-3.1 11-3.9 14-.8 3-1.4 5.5-1.3 5.6.2.3 17.2-4.1 59.7-15.2 7.4-2 14.2-3.7 15-3.9.8-.2 5.9-1.5 11.3-3s10.6-2.8 11.5-3c.9-.3 8.7-2.3 17.2-4.5s16.6-4.3 18-4.6c1.4-.2 3.6-.9 5-1.4 1.4-.5 5.4-1.7 9-2.5 3.6-.9 7.2-1.7 8-1.9.8-.2 13.7-3.6 28.5-7.5 14.9-3.9 30.4-7.9 34.5-9 11.2-2.9 30.1-7.8 42.5-11.1 11-2.9 28.4-7.4 42.5-11.1 4.1-1.1 8.6-2.2 9.9-2.5 1.3-.2 2.6-.6 3-.7.3-.1 8.5 3.7 18.1 8.5 22.3 11 25.4 12.4 44.6 20.1 27.8 11.2 69.7 24.4 89.5 28.2.9.2 5.9 1.3 11 2.4 9.5 2 12.2 2.5 19.4 3.7 2.2.3 4.2.7 4.5.9.3.2 3.3.6 6.5 1 3.3.3 6.7.8 7.5 1 .8.2 3.5.7 6 1 2.5.3 6.1.8 8 1 3.2.5 9.6 1.1 19 1.9 30.7 2.7 79.3 2.7 104.5.1 2.2-.2 6.9-.7 10.5-1.1 3.6-.3 7.6-.7 9-.9 2.4-.2 8.4-1 16-2.1 3.2-.5 21.9-3.7 28-4.8 7.9-1.5 13.2-2.6 13.8-3 .4-.2 2.3-.7 4.2-1 7.9-1.2 41.2-10.4 50-13.7 1.4-.5 3.4-1.1 4.5-1.3 2-.5 25.4-8.9 29-10.5 1.1-.5 5.2-2.1 9-3.6 44.6-17.8 95.8-47 136.6-78.2 32.3-24.7 67.6-57.9 92-86.8 1.9-2.2 3.6-4.2 3.9-4.5 3.6-3.4 27.8-35.6 35.5-47 2.8-4.1 5.3-7.7 5.6-8 .6-.6 10.7-16.7 12.9-20.7.9-1.6 4.1-7.1 7.2-12.3 13.7-23.3 33.6-65.7 41.8-89.5 6.8-19.7 13.2-39.8 14.5-45.5.2-.8.9-3.1 1.4-5 1-3.1 7.7-31.6 8.7-36.5.4-2 2.7-15.5 4.4-25.5 1.5-8.7 2-13.2 3.5-27 .3-3 .8-6.9 1-8.6 2.7-19.2 2.7-87.5 0-110.9-.2-1.7-.6-5.9-1-9.5-.4-3.6-1.3-11-2.1-16.5s-1.7-11.6-1.9-13.5c-.3-1.9-.7-4.6-1-6-.3-1.4-.8-4.1-1.1-6-1.9-11.8-10.1-47.6-12.9-55.6-.8-2.4-1.6-5.3-1.9-6.6-.8-4.7-14.6-44.7-17.6-51.3-.5-1.1-3-7-5.6-13-16-38.1-40.3-80.8-65.7-115.5-6.3-8.6-20.4-26.8-21.7-28-.3-.3-4.4-5-9.1-10.5-10.4-12.1-12.4-14.3-24.9-27-16-16.4-21.8-21.7-45.5-42.4-5-4.4-24.5-19.4-34.3-26.4-43.5-31.4-93.4-57.7-144.7-76.2-7.1-2.6-13.4-4.8-14-5-.5-.1-1.7-.5-2.5-.8-1.7-.7-21.4-6.7-23.9-7.3-.9-.2-7.7-1.9-15.1-3.8-11.6-3-21-5.2-30.8-7.1-1.3-.2-3.1-.6-4-.9-.9-.3-3.9-.7-6.6-1.1-2.7-.3-5.2-.8-5.5-1-.3-.1-3-.6-6-1s-6.1-.8-7-1c-5.1-.9-18.9-2.7-23.6-3-3.8-.3-16.8-1.5-22-2.1-4.6-.6-72.1-1.4-72.7-1z"/></svg>